<svg id="Layer_1" data-name="Layer 1" xmlns="http://www.w3.org/2000/svg" viewBox="0 0 98 98"><defs><style>.cls-1{fill:#fff;}</style></defs><rect x="0.81" y="1" width="98" height="98" rx="7.65" transform="translate(99 -0.81) rotate(90)"/><path class="cls-1" d="M71.3,24.29A4.69,4.69,0,1,0,76,29,4.68,4.68,0,0,0,71.3,24.29Z" transform="translate(-0.81 -1)"/><path class="cls-1" d="M50.58,30.31A19.71,19.71,0,1,0,70.16,50,19.66,19.66,0,0,0,50.58,30.31Zm0,32.33A12.63,12.63,0,1,1,63.12,50,12.59,12.59,0,0,1,50.58,62.64Z" transform="translate(-0.81 -1)"/><path class="cls-1" d="M66.12,90H34.39A24,24,0,0,1,10.52,66V34A24,24,0,0,1,34.39,10H66.12A24,24,0,0,1,90,34V66A24,24,0,0,1,66.12,90ZM34.39,17.53A16.48,16.48,0,0,0,18,34V66A16.47,16.47,0,0,0,34.39,82.5H66.12A16.47,16.47,0,0,0,82.52,66V34a16.47,16.47,0,0,0-16.4-16.51Z" transform="translate(-0.81 -1)"/></svg>