<svg id="Layer_1" data-name="Layer 1" xmlns="http://www.w3.org/2000/svg" viewBox="0 0 98 98"><defs><style>.cls-1{fill:#fff;}</style></defs><rect x="0.81" y="1" width="98" height="98" rx="7.65" transform="translate(99 -0.81) rotate(90)"/><path class="cls-1" d="M91.65,23.34a34.74,34.74,0,0,1-8.54,2.43c1.37-.23,3.39-2.72,4.2-3.72a15.77,15.77,0,0,0,2.84-5.17c.07-.15.12-.34,0-.45a.52.52,0,0,0-.46,0,43.63,43.63,0,0,1-10.13,3.88.68.68,0,0,1-.7-.19,8.48,8.48,0,0,0-.88-.91,18.09,18.09,0,0,0-4.91-3A17,17,0,0,0,65.52,15a18.07,18.07,0,0,0-7.14,2,18.59,18.59,0,0,0-5.76,4.71,17.89,17.89,0,0,0-3.44,6.89A18.73,18.73,0,0,0,49,35.92c.06.41,0,.46-.35.41-13.91-2.07-25.45-7-34.81-17.72-.41-.46-.63-.46-1,0-4.1,6.14-2.11,16,3,20.85A27.76,27.76,0,0,0,18,41.39a18,18,0,0,1-6.72-1.89c-.41-.25-.61-.11-.65.35a11.44,11.44,0,0,0,.11,2,17.87,17.87,0,0,0,11,14.23,10.66,10.66,0,0,0,2.23.68,19.58,19.58,0,0,1-6.59.2c-.48-.09-.66.15-.48.61,2.9,7.91,9.16,10.26,13.84,11.6.63.11,1.26.11,1.89.25,0,.06-.08.06-.11.11-1.56,2.37-7,4.14-9.46,5A33.7,33.7,0,0,1,8.74,76.38c-.77-.11-.93-.1-1.14,0s0,.32.22.52c1,.64,2,1.22,3,1.77a47.64,47.64,0,0,0,9.6,3.84C37.66,87.27,57.09,83.77,70,70.91c10.17-10.11,13.73-24,13.73-38,0-.54.65-.84,1-1.13a33.35,33.35,0,0,0,6.75-7A2.07,2.07,0,0,0,92,23.41v-.07C92,23.11,92,23.18,91.65,23.34Z" transform="translate(-0.81 -1)"/></svg>