<svg id="Layer_1" data-name="Layer 1" xmlns="http://www.w3.org/2000/svg" viewBox="0 0 98 98"><defs><style>.cls-1{fill:#fff;}</style></defs><rect x="0.81" y="1" width="98" height="98" rx="7.65" transform="translate(99 -0.81) rotate(90)"/><path class="cls-1" d="M49.24,12.29A37.71,37.71,0,1,0,87,50,37.78,37.78,0,0,0,49.24,12.29Zm24.85,17.8a31.7,31.7,0,0,1,7,19.42,79.34,79.34,0,0,0-14.76-1.42,60.58,60.58,0,0,0-7.27.42c-.21-.51-.42-1-.64-1.52-.64-1.51-1.33-3-2-4.48,11.16-4.59,16.55-11,17.67-12.42ZM49.24,18.19a31.82,31.82,0,0,1,21,7.91c-.89,1.22-5.72,7.24-16.48,11.31A170.92,170.92,0,0,0,42,19a31.73,31.73,0,0,1,7.2-.82ZM35.53,21.28A206.66,206.66,0,0,1,47.21,39.45a120.54,120.54,0,0,1-28.84,3.84h-.31a32,32,0,0,1,17.47-22ZM17.33,50.05c0-.26,0-.52,0-.79h.83a119.57,119.57,0,0,0,31.87-4.53c.86,1.68,1.68,3.38,2.44,5.09-.36.1-.71.2-1.06.32-16,5.15-24.71,18.78-26.06,21a31.69,31.69,0,0,1-8-21.11ZM49.24,81.91a31.8,31.8,0,0,1-19.46-6.63c.91-1.79,7.53-13.7,25-19.78h0a132.2,132.2,0,0,1,6.75,23.94,31.63,31.63,0,0,1-12.32,2.48Zm18.07-5.62a140,140,0,0,0-6.12-22.37,42.65,42.65,0,0,1,6.42-.48,47.44,47.44,0,0,1,13.1,1.83,31.92,31.92,0,0,1-13.4,21Z" transform="translate(-0.81 -1)"/></svg>